# Blender v2.79 (sub 0) OBJ File: ''
# www.blender.org
mtllib waffles.mtl
o Cube.001
v 1.999999 -0.999999 -3.999998
v 1.999999 -1.000001 3.999998
v -1.999999 -1.000001 3.999998
v -1.999999 -0.999999 -4.000000
v 2.000000 1.000001 -3.999996
v -1.999999 1.000001 -3.999998
v -2.000000 0.999999 3.999996
v 1.999998 0.999999 4.000000
vt 0.000000 0.000000
vt 1.000000 0.000000
vt 1.000000 1.000000
vt 0.000000 1.000000
vt 1.000000 0.000000
vt 1.000000 1.000000
vt 0.000000 1.000000
vt 0.000000 0.000000
vt 1.000000 0.000000
vt 1.000000 1.000000
vt 0.000000 1.000000
vt 0.000000 0.000000
vt 1.000000 0.000000
vt 1.000000 1.000000
vt 0.000000 0.000000
vt 1.000000 0.000000
vt 1.000000 1.000000
vt 0.000000 1.000000
vt 0.000000 1.000000
vt 0.000000 0.000001
vn 0.0000 -1.0000 -0.0000
vn 1.0000 0.0000 0.0000
vn -0.0000 -0.0000 1.0000
vn -1.0000 -0.0000 -0.0000
vn 0.0000 0.0000 -1.0000
vn -0.0000 1.0000 0.0000
usemtl Waffle_Box
s 1
f 1/1/1 2/2/1 3/3/1 4/4/1
f 1/1/2 5/5/2 8/6/2 2/7/2
f 2/8/3 8/9/3 7/10/3 3/11/3
f 3/12/4 7/13/4 6/14/4 4/4/4
f 5/15/5 1/16/5 4/17/5 6/18/5
usemtl Waffle_Box_leggo.jpg
f 5/5/6 6/14/6 7/19/6 8/20/6
